<svg xmlns="http://www.w3.org/2000/svg" viewBox="0 0 820 240">
  <g transform="translate(0,10)"><g fill="none" stroke="#f0eae8" stroke-width="9" stroke-linejoin="round">
    <circle cx="130" cy="105" r="84"/></g>
  <path d="M130.0 69.7 L160.6 87.4 L160.6 122.6 L130.0 140.3 L99.4 122.6 L99.4 87.4 Z" fill="#e83a29" opacity="0.16"/>
  <g stroke="#f0eae8" stroke-width="4.5" stroke-linecap="round" opacity="0.9"><line x1="130.0" y1="69.7" x2="184.5" y2="44.4"/><line x1="160.6" y1="87.4" x2="209.7" y2="121.9"/><line x1="160.6" y1="122.6" x2="155.2" y2="182.5"/><line x1="130.0" y1="140.3" x2="75.5" y2="165.6"/><line x1="99.4" y1="122.6" x2="50.3" y2="88.1"/><line x1="99.4" y1="87.4" x2="104.8" y2="27.5"/></g>
  <path d="M130.0 69.7 L160.6 87.4 L160.6 122.6 L130.0 140.3 L99.4 122.6 L99.4 87.4 Z" fill="none" stroke="#e83a29" stroke-width="5" stroke-linejoin="round"/>
  <circle cx="130" cy="105" r="12.0" fill="#e83a29"/>
  <g transform="translate(12,183) scale(0.2002)"><path d="M8.58 257.48 C10.06 255.55 15.22 251.06 20.05 247.52 C24.89 243.97 29.15 240.56 29.53 239.95 C30.28 238.74 26.2 240.75 21.66 243.83 C18.64 245.88 14.48 245.68 15.76 243.55 C16.17 242.87 21.45 238.13 27.5 233.02 C42.29 220.51 43.78 218.96 37.75 222.39 C35.14 223.87 33.0 224.65 33.0 224.13 C33.0 223.13 42.21 216.0 43.5 216.0 C45.09 216.0 61.32 205.61 60.27 205.26 C59.65 205.05 57.2 206.12 54.82 207.62 C42.17 215.65 33.03 219.77 39.36 214.59 C41.24 213.05 41.78 212.09 40.93 211.81 C40.22 211.57 42.46 209.83 45.9 207.94 C52.64 204.24 53.82 202.69 50.25 202.18 C49.01 202.0 48.0 201.39 48.0 200.81 C48.0 200.24 46.99 199.99 45.75 200.27 C39.01 201.77 22.32 204.99 21.25 205.0 C18.71 205.0 20.18 202.32 26.6 195.24 C31.66 189.66 37.16 185.36 50.5 176.54 C60.03 170.25 68.14 164.58 68.53 163.95 C69.06 163.09 68.71 163.08 67.12 163.94 C63.02 166.13 64.92 163.02 69.68 159.73 C72.26 157.95 81.38 151.49 89.96 145.37 C99.23 138.75 110.54 131.74 117.87 128.07 C124.65 124.67 136.78 118.14 144.84 113.56 C152.91 108.98 162.32 104.04 165.78 102.59 C171.37 100.24 204.24 88.28 216.0 84.31 C223.39 81.82 243.35 73.77 245.5 72.41 C246.6 71.72 251.07 70.42 255.44 69.53 C281.03 64.3 331.49 53.29 335.5 52.06 C340.14 50.63 363.56 45.68 396.5 39.18 C480.78 22.52 556.53 14.74 705.0 7.5 C764.03 4.62 915.56 5.57 1020.0 9.48 C1041.17 10.27 1080.1 11.63 1106.5 12.51 C1148.63 13.9 1155.23 14.33 1160.5 16.05 C1163.8 17.12 1167.62 18.01 1169.0 18.02 C1172.19 18.03 1174.45 19.46 1173.57 20.89 C1173.08 21.68 1160.03 22.0 1128.69 22.0 L1084.5 22.01 L1077.0 25.13 C1072.88 26.85 1065.67 29.48 1061.0 30.96 C1053.63 33.3 1052.18 34.14 1050.08 37.33 L1047.66 41.0 L1023.37 41.0 C1000.09 41.0 999.03 41.08 998.0 43.0 C997.41 44.1 996.22 45.0 995.35 45.0 C994.48 45.0 989.87 46.75 985.11 48.9 C976.18 52.92 960.04 57.0 953.07 57.0 C950.41 57.0 948.79 57.55 948.17 58.66 C947.33 60.16 944.97 60.26 923.37 59.71 C910.24 59.37 889.15 58.58 876.5 57.95 C854.09 56.83 852.94 56.87 831.5 59.46 C795.44 63.82 784.6 64.83 761.5 65.96 C691.11 69.4 677.18 70.13 664.5 71.04 C650.35 72.05 605.39 78.43 555.0 86.55 C534.73 89.83 524.66 90.99 516.7 91.0 C509.52 91.0 505.0 91.46 503.2 92.38 C501.72 93.13 497.12 94.03 493.0 94.37 C453.94 97.57 448.74 98.24 445.46 100.46 C443.43 101.84 437.87 103.54 430.84 104.93 C424.61 106.16 411.62 108.96 402.0 111.14 C358.96 120.9 356.87 121.27 332.0 123.51 C314.96 125.05 313.32 125.37 311.24 127.55 C310.0 128.86 307.08 130.42 304.74 131.03 C299.44 132.42 258.03 143.97 256.03 144.63 C254.75 145.04 254.75 145.23 255.99 146.0 C257.74 147.08 256.18 147.73 240.0 152.62 C207.25 162.53 198.87 165.62 176.47 176.06 C163.57 182.07 147.27 189.52 140.25 192.62 C126.17 198.84 105.17 208.93 100.5 211.73 C98.85 212.72 91.2 217.28 83.5 221.88 C75.8 226.47 66.98 231.74 63.89 233.59 C54.11 239.45 10.16 261.0 7.98 261.0 C5.98 261.0 6.01 260.86 8.58 257.48 Z" fill="#e83a29"/></g></g><text x="280" y="150" font-family="Helvetica Neue,Arial,sans-serif" font-size="150" font-weight="800" letter-spacing="-7" fill="#f0eae8">Sentry</text>
</svg>